<?xml version="1.0" encoding="UTF-8"?>
<svg id="Layer_1" data-name="Layer 1" xmlns="http://www.w3.org/2000/svg" viewBox="0 0 584.04 340.93">
  <defs>
    <style>
      .cls-1 {
        fill: #fff;
        stroke-width: 0px;
      }
    </style>
  </defs>
  <path class="cls-1" d="M575.99,290.48L314.17,9.54C308.3,3.24,300.35.05,292.37,0c-.12,0-.23,0-.35,0-.12,0-.23,0-.35,0-7.98.04-15.93,3.24-21.8,9.54L8.05,290.48c-11.3,12.12-10.63,31.1,1.49,42.4h0c12.12,11.3,31.1,10.63,42.4-1.49L292.02,73.78l240.08,257.6c11.3,12.12,30.28,12.79,42.4,1.49h0c12.12-11.3,12.79-30.28,1.49-42.4Z"/>
</svg>