<?xml version="1.0" encoding="UTF-8"?>
<svg id="Layer_1" data-name="Layer 1" xmlns="http://www.w3.org/2000/svg" version="1.1" viewBox="0 0 448 512">
  <defs>
    <style>
      .cls-1 {
        fill: #fff;
        stroke-width: 0px;
      }
    </style>
  </defs>
  <path class="cls-1" d="M393.4,41.4c12.5-12.5,32.8-12.5,45.3,0s12.5,32.8,0,45.3l-169.4,169.3,169.3,169.4c12.5,12.5,12.5,32.8,0,45.3s-32.8,12.5-45.3,0l-169.3-169.4L54.6,470.6c-12.5,12.5-32.8,12.5-45.3,0s-12.5-32.8,0-45.3l169.4-169.3L9.4,86.6c-12.5-12.5-12.5-32.7,0-45.2,12.5-12.5,32.8-12.5,45.3,0l169.3,169.3L393.4,41.4Z"/>
</svg>