<?xml version="1.0" encoding="UTF-8"?>
<svg id="Layer_1" data-name="Layer 1" xmlns="http://www.w3.org/2000/svg" viewBox="0 0 372.94 366.72">
  <defs>
    <style>
      .cls-1 {
        fill: #fff;
        fill-rule: evenodd;
        stroke-width: 0px;
      }
    </style>
  </defs>
  <path class="cls-1" d="M186.62,0C83.42,0,0,84.04,0,188.01c0,83.11,53.45,153.46,127.61,178.36,9.27,1.87,12.67-4.05,12.67-9.02,0-4.36-.31-19.3-.31-34.87-51.91,11.21-62.72-22.41-62.72-22.41-8.34-21.79-20.7-27.39-20.7-27.39-16.99-11.52,1.24-11.52,1.24-11.52,18.85,1.25,28.74,19.3,28.74,19.3,16.68,28.63,43.56,20.54,54.38,15.56,1.54-12.14,6.49-20.54,11.74-25.21-41.4-4.36-84.97-20.54-84.97-92.76,0-20.54,7.41-37.35,19.15-50.42-1.85-4.67-8.34-23.97,1.86-49.81,0,0,15.76-4.98,51.29,19.3,15.21-4.12,30.9-6.21,46.66-6.23,15.76,0,31.82,2.18,46.65,6.23,35.53-24.28,51.29-19.3,51.29-19.3,10.2,25.83,3.71,45.14,1.85,49.81,12.05,13.07,19.16,29.88,19.16,50.42,0,72.22-43.56,88.09-85.28,92.76,6.8,5.91,12.67,17.12,12.67,34.86,0,25.21-.31,45.45-.31,51.67,0,4.98,3.4,10.9,12.67,9.03,74.15-24.91,127.61-95.25,127.61-178.36C373.24,84.04,289.51,0,186.62,0Z"/>
</svg>