<?xml version="1.0" encoding="UTF-8"?>
<svg id="Layer_1" data-name="Layer 1" xmlns="http://www.w3.org/2000/svg" version="1.1" viewBox="0 0 448 512">
  <defs>
    <style>
      .cls-1 {
        fill: #fff;
        stroke-width: 0px;
      }
    </style>
  </defs>
  <path class="cls-1" d="M384,80c8.8,0,16,7.2,16,16v320c0,8.8-7.2,16-16,16H64c-8.8,0-16-7.2-16-16V96c0-8.8,7.2-16,16-16h320ZM64,32C28.7,32,0,60.7,0,96v320c0,35.3,28.7,64,64,64h320c35.3,0,64-28.7,64-64V96c0-35.3-28.7-64-64-64H64Z"/>
</svg>