<?xml version="1.0" encoding="UTF-8"?>
<svg id="Layer_1" data-name="Layer 1" xmlns="http://www.w3.org/2000/svg" version="1.1" viewBox="0 0 448 512">
  <defs>
    <style>
      .cls-1 {
        fill: #fff;
        stroke-width: 0px;
      }
    </style>
  </defs>
  <path class="cls-1" d="M42.9,170.3c-5.9,0-10.7,4.8-10.7,10.7v214.3c0,5.9,4.8,10.7,10.7,10.7h214.3c5.9,0,10.7-4.8,10.7-10.7v-214.3c0-5.9-4.8-10.7-10.7-10.7H42.9ZM257.1,138.1c23.6,0,42.9,19.2,42.9,42.9v214.3c0,23.6-19.2,42.9-42.9,42.9H42.9c-23.6,0-42.9-19.2-42.9-42.9v-214.3c0-23.6,19.2-42.9,42.9-42.9h214.3Z"/>
  <path class="cls-1" d="M405.1,23.7h-214.3c-23.6,0-42.9,19.2-42.9,42.9v97.3c10.7.8,21.5,0,32.1-.8v-96.5c0-5.9,4.8-10.7,10.7-10.7h214.3c5.9,0,10.7,4.8,10.7,10.7v214.3c0,5.9-4.8,10.7-10.7,10.7h-123.4c-2.8,10.8-6.2,21.4-9.2,32.1h132.6c23.6,0,42.9-19.2,42.9-42.9V66.6c0-23.6-19.2-42.9-42.9-42.9Z"/>
</svg>